#!OML:ASF H:\Dans Jumps\Project 1\Capture day 1\Session 1\subject.ASF
:FULLY-SPECIFIED
:DEGREES
543
root 0.478856 17.7207 -1.08655 6.85306 0.430274 -1.55393
lowerback -3.74062 -0.493782 0.392992
upperback 2.22787 -0.74942 1.65039
thorax 4.41509 -0.387011 1.42796
lowerneck -11.9071 0.289514 -2.01501
upperneck 37.2237 0.694161 0.807617
head 14.8951 0.121114 0.80607
rclavicle -6.70898e-015 5.96354e-016
rhumerus -26.587 -16.4643 -79.483
rradius 22.8917
rwrist 36.0879
rhand -21.329 -27.0556
rfingers 7.12502
rthumb 5.05665 -56.9753
lclavicle -6.70898e-015 5.96354e-016
lhumerus -25.2567 -1.24568 89.0112
lradius 16.7973
lwrist 7.621
lhand -23.9494 -6.03271
lfingers 7.12502
lthumb 2.52624 23.9321
rfemur -11.7463 -2.26225 20.0852
rtibia 21.3894
rfoot -14.7724 0.620799
rtoes 17.294
lfemur -8.49076 7.60178 -18.1979
ltibia 17.8942
lfoot -11.7123 6.68535
ltoes 3.41121
544
root 0.48225 17.7205 -1.08848 6.84155 0.442881 -1.55712
lowerback -3.73889 -0.495781 0.406348
upperback 2.22058 -0.752983 1.65755
thorax 4.40655 -0.388466 1.42762
lowerneck -11.9109 0.289299 -2.01359
upperneck 37.241 0.696598 0.799864
head 14.9044 0.121207 0.803178
rclavicle -3.67752e-015 8.54774e-015
rhumerus -26.5968 -16.4483 -79.4899
rradius 22.894
rwrist 36.0695
rhand -21.3294 -27.0345
rfingers 7.12502
rthumb 5.05631 -56.9542
lclavicle -3.67752e-015 8.54774e-015
lhumerus -25.2392 -1.32121 89.0278
lradius 16.7965
lwrist 7.67622
lhand -23.9931 -6.10887
lfingers 7.12502
lthumb 2.48405 23.8564
rfemur -11.7425 -2.27275 20.0769
rtibia 21.3964
rfoot -14.7723 0.610553
rtoes 17.2609
lfemur -8.4924 7.59681 -18.2053
ltibia 17.9041
lfoot -11.7139 6.67552
ltoes 3.44425
545
root 0.485565 17.7204 -1.09039 6.83002 0.451617 -1.55953
lowerback -3.73854 -0.496549 0.41788
upperback 2.21449 -0.754824 1.66435
thorax 4.40002 -0.38912 1.42804
lowerneck -11.9172 0.288119 -2.01134
upperneck 37.258 0.697754 0.791179
head 14.9141 0.120743 0.799555
rclavicle 3.18055e-015 3.18055e-015
rhumerus -26.6081 -16.418 -79.5
rradius 22.9034
rwrist 36.0364
rhand -21.3195 -27.0232
rfingers 7.12502
rthumb 5.06587 -56.9427
lclavicle 3.18055e-015 3.18055e-015
lhumerus -25.2236 -1.36885 89.0364
lradius 16.8033
lwrist 7.70797
lhand -24.0393 -6.19869
lfingers 7.12502
lthumb 2.43939 23.7671
rfemur -11.7379 -2.27925 20.0679
rtibia 21.4007
rfoot -14.7701 0.599883
rtoes 17.2276
lfemur -8.49372 7.59412 -18.2136
ltibia 17.915
lfoot -11.7166 6.66811
ltoes 3.46976
546
root 0.488832 17.7203 -1.09223 6.81781 0.454825 -1.56267
lowerback -3.74042 -0.496159 0.429503
upperback 2.21135 -0.755204 1.67105
thorax 4.39778 -0.389059 1.42841
lowerneck -11.9277 0.286518 -2.00993
upperneck 37.2736 0.698109 0.783747
head 14.9243 0.119982 0.796484
rclavicle 2.98177e-016 3.57812e-015
rhumerus -26.6167 -16.3748 -79.5143
rradius 22.9186
rwrist 35.9944
rhand -21.2974 -27.0393
rfingers 7.12502
rthumb 5.08716 -56.9583
lclavicle 2.98177e-016 3.57812e-015
lhumerus -25.2051 -1.39604 89.039
lradius 16.8146
lwrist 7.72069
lhand -24.0903 -6.30268
lfingers 7.12502
lthumb 2.39013 23.6637
rfemur -11.7317 -2.28198 20.0597
rtibia 21.4011
rfoot -14.764 0.590353
rtoes 17.1988
lfemur -8.49406 7.59529 -18.2207
ltibia 17.9275
lfoot -11.722 6.66107
ltoes 3.50424
547
root 0.492035 17.7202 -1.09395 6.80421 0.455781 -1.56419
lowerback -3.74383 -0.495965 0.43818
upperback 2.21139 -0.755754 1.67756
thorax 4.39976 -0.38918 1.4302
lowerneck -11.9398 0.284937 -2.01134
upperneck 37.2854 0.698433 0.778611
head 14.9329 0.119144 0.79484
rclavicle 6.95746e-016 6.75868e-015
rhumerus -26.6176 -16.3315 -79.5288
rradius 22.9274
rwrist 35.9576
rhand -21.2689 -27.0687
rfingers 7.12502
rthumb 5.11473 -56.987
lclavicle 6.95746e-016 6.75868e-015
lhumerus -25.1825 -1.39264 89.0321
lradius 16.8343
lwrist 7.71482
lhand -24.0846 -6.33473
lfingers 7.12502
lthumb 2.39562 23.6316
rfemur -11.7231 -2.28515 20.05
rtibia 21.4005
rfoot -14.758 0.584198
rtoes 17.1811
lfemur -8.49059 7.60031 -18.2292
ltibia 17.9368
lfoot -11.7255 6.6532
ltoes 3.52563
548
root 0.495113 17.7201 -1.09555 6.78917 0.453175 -1.56804
lowerback -3.74682 -0.495219 0.447968
upperback 2.21242 -0.75567 1.68479
thorax 4.40251 -0.388969 1.43218
lowerneck -11.9521 0.282791 -2.0172
upperneck 37.2961 0.697645 0.777473
head 14.9409 0.117745 0.795471
rclavicle -1.04362e-015 -6.75868e-015
rhumerus -26.6138 -16.2935 -79.5404
rradius 22.9274
rwrist 35.932
rhand -21.2403 -27.1036
rfingers 7.12502
rthumb 5.14234 -57.0212
lclavicle -1.04362e-015 -6.75868e-015
lhumerus -25.1611 -1.37383 89.0213
lradius 16.86
lwrist 7.6964
lhand -24.0513 -6.31656
lfingers 7.12502
lthumb 2.42779 23.6494
rfemur -11.7126 -2.28579 20.0431
rtibia 21.3985
rfoot -14.7502 0.580036
rtoes 17.173
lfemur -8.48314 7.61085 -18.2342
ltibia 17.9429
lfoot -11.7297 6.64109
ltoes 3.54811
549
root 0.498053 17.7199 -1.09714 6.77377 0.447864 -1.56938
lowerback -3.74975 -0.494384 0.453223
upperback 2.21552 -0.755247 1.69192
thorax 4.40744 -0.388732 1.43661
lowerneck -11.965 0.280837 -2.02731
upperneck 37.3033 0.697464 0.778701
head 14.9474 0.116352 0.797913
rclavicle 2.78299e-015 -7.95139e-016
rhumerus -26.601 -16.2695 -79.5473
rradius 22.916
rwrist 35.9261
rhand -21.2114 -27.1321
rfingers 7.12502
rthumb 5.17027 -57.049
lclavicle 2.78299e-015 -7.95139e-016
lhumerus -25.1334 -1.35173 89.0108
lradius 16.8831
lwrist 7.66917
lhand -24.0169 -6.28589
lfingers 7.12502
lthumb 2.46108 23.6797
rfemur -11.7018 -2.28101 20.0341
rtibia 21.3962
rfoot -14.742 0.572594
rtoes 17.1615
lfemur -8.47343 7.62408 -18.2413
ltibia 17.9458
lfoot -11.7329 6.62803
ltoes 3.56625
550
root 0.500923 17.7198 -1.09865 6.75604 0.440162 -1.5703
lowerback -3.75049 -0.492887 0.457604
upperback 2.21947 -0.753859 1.69871
thorax 4.41197 -0.388038 1.44128
lowerneck -11.9758 0.278857 -2.04038
upperneck 37.3096 0.697357 0.781754
head 14.9529 0.114832 0.801637
rclavicle -7.35503e-015 6.75868e-015
rhumerus -26.5854 -16.2574 -79.5489
rradius 22.8972
rwrist 35.9339
rhand -21.1877 -27.1454
rfingers 7.12502
rthumb 5.19308 -57.0617
lclavicle -7.35503e-015 6.75868e-015
lhumerus -25.1044 -1.3346 89.002
lradius 16.9087
lwrist 7.65666
lhand -24.0039 -6.2746
lfingers 7.12502
lthumb 2.47361 23.6908
rfemur -11.6878 -2.27208 20.0247
rtibia 21.3931
rfoot -14.7343 0.562773
rtoes 17.1411
lfemur -8.45969 7.6402 -18.2483
ltibia 17.9466
lfoot -11.735 6.61485
ltoes 3.57678
551
root 0.503726 17.7198 -1.10025 6.74001 0.430186 -1.56981
lowerback -3.74972 -0.490521 0.460213
upperback 2.22111 -0.751133 1.70515
thorax 4.41325 -0.386717 1.44669
lowerneck -11.9798 0.276928 -2.05748
upperneck 37.3135 0.697486 0.78702
head 14.9557 0.11318 0.806981
rclavicle 7.30534e-015 -7.95139e-015
rhumerus -26.5723 -16.2587 -79.5437
rradius 22.8754
rwrist 35.9549
rhand -21.1689 -27.1424
rfingers 7.12502
rthumb 5.2113 -57.0584
lclavicle 7.30534e-015 -7.95139e-015
lhumerus -25.0787 -1.33266 88.9999
lradius 16.932
lwrist 7.65248
lhand -24.0308 -6.29979
lfingers 7.12502
lthumb 2.44757 23.6659
rfemur -11.6762 -2.25866 20.0138
rtibia 21.3905
rfoot -14.7265 0.549923
rtoes 17.1065
lfemur -8.44659 7.65684 -18.2571
ltibia 17.9451
lfoot -11.7357 6.60188
ltoes 3.58776
552
root 0.506573 17.7197 -1.10184 6.72318 0.419568 -1.56825
lowerback -3.74651 -0.487932 0.463237
upperback 2.22153 -0.748023 1.71042
thorax 4.41184 -0.385169 1.4507
lowerneck -11.9797 0.276073 -2.07335
upperneck 37.3179 0.699255 0.791044
head 14.9577 0.112232 0.811827
rclavicle -2.23633e-015 2.38542e-015
rhumerus -26.5661 -16.2692 -79.5341
rradius 22.8583
rwrist 35.9845
rhand -21.1455 -27.1361
rfingers 7.12502
rthumb 5.23383 -57.0515
lclavicle -2.23633e-015 2.38542e-015
lhumerus -25.0528 -1.359 89.0065
lradius 16.9486
lwrist 7.67404
lhand -24.1066 -6.39287
lfingers 7.12502
lthumb 2.37444 23.5737
rfemur -11.6637 -2.24364 20.0014
rtibia 21.3878
rfoot -14.719 0.535068
rtoes 17.0575
lfemur -8.43169 7.67277 -18.2675
ltibia 17.9418
lfoot -11.7352 6.5912
ltoes 3.59294
553
root 0.509485 17.7198 -1.10342 6.70741 0.410132 -1.56417
lowerback -3.74339 -0.485753 0.465331
upperback 2.22027 -0.745332 1.71459
thorax 4.40874 -0.383832 1.45406
lowerneck -11.978 0.276597 -2.08504
upperneck 37.3237 0.703495 0.790794
head 14.9601 0.112334 0.814537
rclavicle 1.39149e-015 -4.77083e-015
rhumerus -26.5679 -16.275 -79.5234
rradius 22.8501
rwrist 36.0067
rhand -21.1271 -27.1236
rfingers 7.12502
rthumb 5.25166 -57.0385
lclavicle 1.39149e-015 -4.77083e-015
lhumerus -25.0299 -1.39648 89.0171
lradius 16.9686
lwrist 7.71307
lhand -24.1635 -6.44897
lfingers 7.12502
lthumb 2.3195 23.5182
rfemur -11.6523 -2.23039 19.9857
rtibia 21.3859
rfoot -14.7123 0.522053
rtoes 17.0132
lfemur -8.41705 7.68627 -18.2813
ltibia 17.9372
lfoot -11.7334 6.58165
ltoes 3.59599
554
root 0.512474 17.7198 -1.10508 6.6926 0.402073 -1.55962
lowerback -3.73964 -0.484396 0.468706
upperback 2.21676 -0.743732 1.71807
thorax 4.40293 -0.382978 1.45591
lowerneck -11.9728 0.278173 -2.09494
upperneck 37.3301 0.70908 0.789523
head 14.9618 0.113117 0.816694
rclavicle 6.4605e-016 -3.18055e-015
rhumerus -26.5788 -16.2756 -79.5117
rradius 22.8519
rwrist 36.0222
rhand -21.1067 -27.1173
rfingers 7.12502
rthumb 5.27129 -57.0317
lclavicle 6.4605e-016 -3.18055e-015
lhumerus -25.0111 -1.44203 89.0301
lradius 16.9915
lwrist 7.7651
lhand -24.1775 -6.44741
lfingers 7.12502
lthumb 2.30596 23.5199
rfemur -11.6427 -2.22001 19.9692
rtibia 21.3849
rfoot -14.7059 0.51132
rtoes 16.9821
lfemur -8.40352 7.69784 -18.2959
ltibia 17.9321
lfoot -11.7322 6.57185
ltoes 3.60828
555
root 0.515585 17.7199 -1.10674 6.67921 0.397312 -1.55493
lowerback -3.73685 -0.484164 0.474495
upperback 2.21187 -0.743721 1.72065
thorax 4.39622 -0.382822 1.45535
lowerneck -11.9666 0.281186 -2.10041
upperneck 37.338 0.716984 0.784442
head 14.9641 0.114979 0.816841
rclavicle 3.57812e-015 -1.63003e-014
rhumerus -26.5931 -16.2775 -79.4991
rradius 22.855
rwrist 36.037
rhand -21.0886 -27.1134
rfingers 7.12502
rthumb 5.28879 -57.0274
lclavicle 3.57812e-015 -1.63003e-014
lhumerus -24.994 -1.49522 89.0451
lradius 17.0136
lwrist 7.81854
lhand -24.1658 -6.42039
lfingers 7.12502
lthumb 2.3172 23.5468
rfemur -11.6346 -2.2159 19.9522
rtibia 21.3856
rfoot -14.7015 0.50422
rtoes 16.9597
lfemur -8.39195 7.70689 -18.3113
ltibia 17.9278
lfoot -11.7317 6.56199
ltoes 3.62666
